<svg xmlns="http://www.w3.org/2000/svg" viewBox="0 0 64 64"><!-- Symbol aus Lucide (https://lucide.dev), ISC-Lizenz, © Lucide Contributors --><defs><linearGradient id="bg" x1="0" y1="0" x2="1" y2="1"><stop offset="0" stop-color="#17a09b"/><stop offset="1" stop-color="#0b5c60"/></linearGradient><linearGradient id="sh" x1="0" y1="0" x2="0" y2="1"><stop offset="0" stop-color="#fff" stop-opacity=".22"/><stop offset=".5" stop-color="#fff" stop-opacity="0"/></linearGradient></defs><rect width="64" height="64" rx="12" fill="url(#bg)"/><rect width="64" height="64" rx="12" fill="url(#sh)"/><rect x=".5" y=".5" width="63" height="63" rx="11.5" fill="none" stroke="#fff" stroke-opacity=".22"/><g transform="translate(14 14) scale(1.5)" fill="none" stroke="#ffffff" stroke-width="1.9" stroke-linecap="round" stroke-linejoin="round"><circle cx="12" cy="5" r="3"/><path d="M6.5 8a2 2 0 0 0-1.905 1.46L2.1 18.5A2 2 0 0 0 4 21h16a2 2 0 0 0 1.925-2.54L19.4 9.5A2 2 0 0 0 17.48 8Z"/></g></svg>